Sprint_06300001_forces_filt999Hz.mot
version=1
nRows=57
nColumns=19
inDegrees=yes
endheader
time	R_ground_force_vx	R_ground_force_vy	R_ground_force_vz	R_ground_force_px	R_ground_force_py	R_ground_force_pz	R_ground_torque_x	R_ground_torque_y	R_ground_torque_z	L_ground_force_vx	L_ground_force_vy	L_ground_force_vz	L_ground_force_px	L_ground_force_py	L_ground_force_pz	L_ground_torque_x	L_ground_torque_y	L_ground_torque_z	
0.897000	  0.000000	  0.000000	  0.000000	  1.331360	  0.000000	 -0.232389	  0.000000	  0.000000	  0.000000	  0.000000	  0.000000	  0.000000	  0.211742	  0.000000	 -0.317170	  0.000000	  0.000000	  0.000000
0.897500	  0.000000	  0.000000	  0.000000	  1.333537	  0.000000	 -0.232521	  0.000000	  0.000000	  0.000000	  0.000000	  0.000000	  0.000000	  0.210281	  0.000000	 -0.316895	  0.000000	  0.000000	  0.000000
0.898000	  0.000000	  0.000000	  0.000000	  1.335714	  0.000000	 -0.232653	  0.000000	  0.000000	  0.000000	  0.000000	  0.000000	  0.000000	  0.208819	  0.000000	 -0.316621	  0.000000	  0.000000	  0.000000
0.898500	  0.000000	  0.000000	  0.000000	  1.337891	  0.000000	 -0.232786	  0.000000	  0.000000	  0.000000	  0.000000	  0.000000	  0.000000	  0.207357	  0.000000	 -0.316347	  0.000000	  0.000000	  0.000000
0.899000	  0.000000	  0.000000	  0.000000	  1.340067	  0.000000	 -0.232918	  0.000000	  0.000000	  0.000000	  0.000000	  0.000000	  0.000000	  0.205895	  0.000000	 -0.316072	  0.000000	  0.000000	  0.000000
0.899500	  0.000000	  0.000000	  0.000000	  1.342244	  0.000000	 -0.233051	  0.000000	  0.000000	  0.000000	  0.000000	  0.000000	  0.000000	  0.204434	  0.000000	 -0.315798	  0.000000	  0.000000	  0.000000
0.900000	  0.000000	  0.000000	  0.000000	  1.344421	  0.000000	 -0.233183	  0.000000	  0.000000	  0.000000	  0.000000	  0.000000	  0.000000	  0.202972	  0.000000	 -0.315523	  0.000000	  0.000000	  0.000000
0.900500	  0.000000	  0.000000	  0.000000	  1.346321	  0.000000	 -0.233319	  0.000000	  0.000000	  0.000000	  0.000000	  0.000000	  0.000000	  0.201687	  0.000000	 -0.315296	  0.000000	  0.000000	  0.000000
0.901000	  0.000000	  0.000000	  0.000000	  1.348221	  0.000000	 -0.233456	  0.000000	  0.000000	  0.000000	  0.000000	  0.000000	  0.000000	  0.200403	  0.000000	 -0.315069	  0.000000	  0.000000	  0.000000
0.901500	  0.000000	  0.000000	  0.000000	  1.350120	  0.000000	 -0.233592	  0.000000	  0.000000	  0.000000	  0.000000	  0.000000	  0.000000	  0.199118	  0.000000	 -0.314841	  0.000000	  0.000000	  0.000000
0.902000	  0.000000	  0.000000	  0.000000	  1.352020	  0.000000	 -0.233728	  0.000000	  0.000000	  0.000000	  0.000000	  0.000000	  0.000000	  0.197834	  0.000000	 -0.314614	  0.000000	  0.000000	  0.000000
0.902500	  0.000000	  0.000000	  0.000000	  1.353919	  0.000000	 -0.233865	  0.000000	  0.000000	  0.000000	  0.000000	  0.000000	  0.000000	  0.196549	  0.000000	 -0.314386	  0.000000	  0.000000	  0.000000
0.903000	  0.000000	  0.000000	  0.000000	  1.355819	  0.000000	 -0.234001	  0.000000	  0.000000	  0.000000	  0.000000	  0.000000	  0.000000	  0.195264	  0.000000	 -0.314159	  0.000000	  0.000000	  0.000000
0.903500	  0.000000	  0.000000	  0.000000	  1.357719	  0.000000	 -0.234138	  0.000000	  0.000000	  0.000000	  0.000000	  0.000000	  0.000000	  0.193980	  0.000000	 -0.313932	  0.000000	  0.000000	  0.000000
0.904000	  0.000000	  0.000000	  0.000000	  1.359618	  0.000000	 -0.234274	  0.000000	  0.000000	  0.000000	  0.000000	  0.000000	  0.000000	  0.192695	  0.000000	 -0.313704	  0.000000	  0.000000	  0.000000
0.904500	  0.000000	  0.000000	  0.000000	  1.361518	  0.000000	 -0.234410	  0.000000	  0.000000	  0.000000	  0.000000	  0.000000	  0.000000	  0.191410	  0.000000	 -0.313477	  0.000000	  0.000000	  0.000000
0.905000	  0.000000	  0.000000	  0.000000	  1.363418	  0.000000	 -0.234547	  0.000000	  0.000000	  0.000000	  0.000000	  0.000000	  0.000000	  0.190126	  0.000000	 -0.313250	  0.000000	  0.000000	  0.000000
0.905500	  0.000000	  0.000000	  0.000000	  1.365009	  0.000000	 -0.234632	  0.000000	  0.000000	  0.000000	  0.000000	  0.000000	  0.000000	  0.188638	  0.000000	 -0.313101	  0.000000	  0.000000	  0.000000
0.906000	  0.000000	  0.000000	  0.000000	  1.366600	  0.000000	 -0.234718	  0.000000	  0.000000	  0.000000	  0.000000	  0.000000	  0.000000	  0.187150	  0.000000	 -0.312952	  0.000000	  0.000000	  0.000000
0.906500	  0.000000	  0.000000	  0.000000	  1.368191	  0.000000	 -0.234804	  0.000000	  0.000000	  0.000000	  0.000000	  0.000000	  0.000000	  0.185662	  0.000000	 -0.312803	  0.000000	  0.000000	  0.000000
0.907000	  0.000000	  0.000000	  0.000000	  1.369782	  0.000000	 -0.234889	  0.000000	  0.000000	  0.000000	  0.000000	  0.000000	  0.000000	  0.184174	  0.000000	 -0.312654	  0.000000	  0.000000	  0.000000
0.907500	  0.000000	  0.000000	  0.000000	  1.371373	  0.000000	 -0.234975	  0.000000	  0.000000	  0.000000	  0.000000	  0.000000	  0.000000	  0.182686	  0.000000	 -0.312506	  0.000000	  0.000000	  0.000000
0.908000	  0.000000	  0.000000	  0.000000	  1.372964	  0.000000	 -0.235061	  0.000000	  0.000000	  0.000000	  0.000000	  0.000000	  0.000000	  0.181198	  0.000000	 -0.312357	  0.000000	  0.000000	  0.000000
0.908500	  0.000000	  0.000000	  0.000000	  1.374555	  0.000000	 -0.235146	  0.000000	  0.000000	  0.000000	  0.000000	  0.000000	  0.000000	  0.179710	  0.000000	 -0.312208	  0.000000	  0.000000	  0.000000
0.909000	  0.000000	  0.000000	  0.000000	  1.376146	  0.000000	 -0.235232	  0.000000	  0.000000	  0.000000	  0.000000	  0.000000	  0.000000	  0.178222	  0.000000	 -0.312059	  0.000000	  0.000000	  0.000000
0.909500	  0.000000	  0.000000	  0.000000	  1.377737	  0.000000	 -0.235318	  0.000000	  0.000000	  0.000000	  0.000000	  0.000000	  0.000000	  0.176734	  0.000000	 -0.311911	  0.000000	  0.000000	  0.000000
0.910000	  0.000000	  0.000000	  0.000000	  1.379328	  0.000000	 -0.235403	  0.000000	  0.000000	  0.000000	  0.000000	  0.000000	  0.000000	  0.175246	  0.000000	 -0.311762	  0.000000	  0.000000	  0.000000
0.910500	  0.000000	  0.000000	  0.000000	  1.380721	  0.000000	 -0.235490	  0.000000	  0.000000	  0.000000	  0.000000	  0.000000	  0.000000	  0.174152	  0.000000	 -0.311660	  0.000000	  0.000000	  0.000000
0.911000	  0.000000	  0.000000	  0.000000	  1.382114	  0.000000	 -0.235576	  0.000000	  0.000000	  0.000000	  0.000000	  0.000000	  0.000000	  0.173058	  0.000000	 -0.311559	  0.000000	  0.000000	  0.000000
0.911500	  0.000000	  0.000000	  0.000000	  1.383507	  0.000000	 -0.235663	  0.000000	  0.000000	  0.000000	  0.000000	  0.000000	  0.000000	  0.171963	  0.000000	 -0.311458	  0.000000	  0.000000	  0.000000
0.912000	  0.000000	  0.000000	  0.000000	  1.384900	  0.000000	 -0.235749	  0.000000	  0.000000	  0.000000	  0.000000	  0.000000	  0.000000	  0.170869	  0.000000	 -0.311356	  0.000000	  0.000000	  0.000000
0.912500	  0.000000	  0.000000	  0.000000	  1.386293	  0.000000	 -0.235836	  0.000000	  0.000000	  0.000000	  0.000000	  0.000000	  0.000000	  0.169775	  0.000000	 -0.311255	  0.000000	  0.000000	  0.000000
0.913000	  0.000000	  0.000000	  0.000000	  1.387686	  0.000000	 -0.235922	  0.000000	  0.000000	  0.000000	  0.000000	  0.000000	  0.000000	  0.168680	  0.000000	 -0.311154	  0.000000	  0.000000	  0.000000
0.913500	  0.000000	  0.000000	  0.000000	  1.389078	  0.000000	 -0.236009	  0.000000	  0.000000	  0.000000	  0.000000	  0.000000	  0.000000	  0.167586	  0.000000	 -0.311052	  0.000000	  0.000000	  0.000000
0.914000	  0.000000	  0.000000	  0.000000	  1.390471	  0.000000	 -0.236095	  0.000000	  0.000000	  0.000000	  0.000000	  0.000000	  0.000000	  0.166492	  0.000000	 -0.310951	  0.000000	  0.000000	  0.000000
0.914500	  0.000000	  0.000000	  0.000000	  1.391864	  0.000000	 -0.236182	  0.000000	  0.000000	  0.000000	  0.000000	  0.000000	  0.000000	  0.165397	  0.000000	 -0.310850	  0.000000	  0.000000	  0.000000
0.915000	  0.000000	  0.000000	  0.000000	  1.393257	  0.000000	 -0.236268	  0.000000	  0.000000	  0.000000	  0.000000	  0.000000	  0.000000	  0.164303	  0.000000	 -0.310748	  0.000000	  0.000000	  0.000000
0.915500	  0.000000	  0.000000	  0.000000	  1.394259	  0.000000	 -0.236373	  0.000000	  0.000000	  0.000000	  0.000000	  0.000000	  0.000000	  0.163592	  0.000000	 -0.310708	  0.000000	  0.000000	  0.000000
0.916000	  0.000000	  0.000000	  0.000000	  1.395261	  0.000000	 -0.236478	  0.000000	  0.000000	  0.000000	  0.000000	  0.000000	  0.000000	  0.162881	  0.000000	 -0.310668	  0.000000	  0.000000	  0.000000
0.916500	  0.000000	  0.000000	  0.000000	  1.396262	  0.000000	 -0.236583	  0.000000	  0.000000	  0.000000	  0.000000	  0.000000	  0.000000	  0.162171	  0.000000	 -0.310627	  0.000000	  0.000000	  0.000000
0.917000	  0.000000	  0.000000	  0.000000	  1.397264	  0.000000	 -0.236688	  0.000000	  0.000000	  0.000000	  0.000000	  0.000000	  0.000000	  0.161460	  0.000000	 -0.310587	  0.000000	  0.000000	  0.000000
0.917500	  0.000000	  0.000000	  0.000000	  1.398266	  0.000000	 -0.236793	  0.000000	  0.000000	  0.000000	  0.000000	  0.000000	  0.000000	  0.160749	  0.000000	 -0.310546	  0.000000	  0.000000	  0.000000
0.918000	  0.000000	  0.000000	  0.000000	  1.399268	  0.000000	 -0.236898	  0.000000	  0.000000	  0.000000	  0.000000	  0.000000	  0.000000	  0.160038	  0.000000	 -0.310506	  0.000000	  0.000000	  0.000000
0.918500	  0.000000	  0.000000	  0.000000	  1.400270	  0.000000	 -0.237003	  0.000000	  0.000000	  0.000000	  0.000000	  0.000000	  0.000000	  0.159328	  0.000000	 -0.310466	  0.000000	  0.000000	  0.000000
0.919000	  0.000000	  0.000000	  0.000000	  1.401271	  0.000000	 -0.237108	  0.000000	  0.000000	  0.000000	  0.000000	  0.000000	  0.000000	  0.158617	  0.000000	 -0.310425	  0.000000	  0.000000	  0.000000
0.919500	  0.000000	  0.000000	  0.000000	  1.402273	  0.000000	 -0.237213	  0.000000	  0.000000	  0.000000	  0.000000	  0.000000	  0.000000	  0.157906	  0.000000	 -0.310385	  0.000000	  0.000000	  0.000000
0.920000	  0.000000	  0.000000	  0.000000	  1.403275	  0.000000	 -0.237318	  0.000000	  0.000000	  0.000000	  0.000000	  0.000000	  0.000000	  0.157195	  0.000000	 -0.310344	  0.000000	  0.000000	  0.000000
0.920500	  0.000000	  0.000000	  0.000000	  1.403974	  0.000000	 -0.237465	  0.000000	  0.000000	  0.000000	  0.000000	  0.000000	  0.000000	  0.156649	  0.000000	 -0.310193	  0.000000	  0.000000	  0.000000
0.921000	  0.000000	  0.000000	  0.000000	  1.404672	  0.000000	 -0.237612	  0.000000	  0.000000	  0.000000	  0.000000	  0.000000	  0.000000	  0.156104	  0.000000	 -0.310042	  0.000000	  0.000000	  0.000000
0.921500	  0.000000	  0.000000	  0.000000	  1.405371	  0.000000	 -0.237759	  0.000000	  0.000000	  0.000000	  0.000000	  0.000000	  0.000000	  0.155558	  0.000000	 -0.309891	  0.000000	  0.000000	  0.000000
0.922000	  0.000000	  0.000000	  0.000000	  1.406069	  0.000000	 -0.237906	  0.000000	  0.000000	  0.000000	  0.000000	  0.000000	  0.000000	  0.155012	  0.000000	 -0.309740	  0.000000	  0.000000	  0.000000
0.922500	  0.000000	  0.000000	  0.000000	  1.406768	  0.000000	 -0.238054	  0.000000	  0.000000	  0.000000	  0.000000	  0.000000	  0.000000	  0.154466	  0.000000	 -0.309589	  0.000000	  0.000000	  0.000000
0.923000	  0.000000	  0.000000	  0.000000	  1.407466	  0.000000	 -0.238201	  0.000000	  0.000000	  0.000000	  0.000000	  0.000000	  0.000000	  0.153920	  0.000000	 -0.309438	  0.000000	  0.000000	  0.000000
0.923500	  0.000000	  0.000000	  0.000000	  1.408165	  0.000000	 -0.238348	  0.000000	  0.000000	  0.000000	  0.000000	  0.000000	  0.000000	  0.153374	  0.000000	 -0.309287	  0.000000	  0.000000	  0.000000
0.924000	  0.000000	  0.000000	  0.000000	  1.408863	  0.000000	 -0.238495	  0.000000	  0.000000	  0.000000	  0.000000	  0.000000	  0.000000	  0.152828	  0.000000	 -0.309136	  0.000000	  0.000000	  0.000000
0.924500	  0.000000	  0.000000	  0.000000	  1.409562	  0.000000	 -0.238642	  0.000000	  0.000000	  0.000000	  0.000000	  0.000000	  0.000000	  0.152282	  0.000000	 -0.308985	  0.000000	  0.000000	  0.000000
0.925000	  0.000000	  0.000000	  0.000000	  1.410260	  0.000000	 -0.238789	  0.000000	  0.000000	  0.000000	  0.000000	  0.000000	  0.000000	  0.151736	  0.000000	 -0.308834	  0.000000	  0.000000	  0.000000
